<svg viewBox="0 0 24 24" fill="none" xmlns="http://www.w3.org/2000/svg">
<path d="M11.9878 14.4401C11.9878 12.4401 14.9878 12.1871 14.9878 10.3331C14.9883 9.62404 14.7376 8.93774 14.2802 8.39593C13.8229 7.85411 13.1884 7.4918 12.4893 7.37328C11.7902 7.25475 11.0718 7.38766 10.4614 7.74843C9.85095 8.1092 9.38805 8.67451 9.15479 9.34409" stroke="currentColor" stroke-width="2" stroke-linecap="round" stroke-linejoin="round"/>
<path d="M12.25 17.5H11.75" stroke="currentColor" stroke-width="2" stroke-linecap="round" stroke-linejoin="round"/>
<path d="M12 21C16.9706 21 21 16.9706 21 12C21 7.02944 16.9706 3 12 3C7.02944 3 3 7.02944 3 12C3 16.9706 7.02944 21 12 21Z" stroke="currentColor" stroke-width="2" stroke-linecap="round" stroke-linejoin="round"/>
</svg>
